<?xml version="1.0" standalone="no"?>
<!DOCTYPE svg PUBLIC "-//W3C//DTD SVG 20010904//EN"
 "http://www.w3.org/TR/2001/REC-SVG-20010904/DTD/svg10.dtd">
<svg version="1.0" xmlns="http://www.w3.org/2000/svg"
 width="512.000000pt" height="512.000000pt" viewBox="0 0 512.000000 512.000000"
 preserveAspectRatio="xMidYMid meet">
<metadata>
Created by potrace 1.11, written by Peter Selinger 2001-2013
</metadata>
<g transform="translate(0.000000,512.000000) scale(0.100000,-0.100000)"
fill="#000000" stroke="none">
<path d="M2340 5110 c-402 -39 -784 -165 -1114 -367 -333 -205 -649 -522 -854
-858 -323 -529 -441 -1174 -327 -1790 95 -515 331 -961 705 -1336 207 -207
386 -341 624 -465 750 -390 1622 -390 2372 0 238 124 417 258 624 465 397 397
632 864 721 1431 33 208 33 532 0 740 -89 569 -325 1035 -725 1436 -399 399
-870 637 -1431 724 -147 23 -459 34 -595 20z m1209 -1206 c52 -37 51 -11 51
-1026 0 -1022 0 -1016 -55 -1136 -56 -121 -143 -205 -275 -262 -47 -21 -71
-24 -165 -25 -98 0 -116 3 -165 26 -123 58 -181 143 -188 277 -8 142 32 238
142 348 82 81 141 113 271 146 109 28 176 65 216 120 56 78 59 106 59 500 0
335 -1 358 -17 357 -10 0 -351 -64 -758 -142 l-740 -142 -5 -620 c-6 -606 -6
-622 -29 -699 -62 -217 -174 -347 -350 -406 -231 -77 -459 40 -492 254 -35
220 133 451 373 516 46 12 104 33 130 46 64 33 140 112 175 181 l28 58 5 600
c5 550 7 603 23 640 20 43 51 81 82 98 28 15 1550 305 1610 306 32 1 59 -5 74
-15z"/>
</g>
</svg>
